{
  "source": "C:\\Users\\mbnyau\\Desktop\\stuff\\MIUN\\quantitative_research\\video_compression\\videos\\UVG\\Jockey_1920x1080_120fps_420_8bit_YUV.y4m",
  "output": "C:\\Users\\mbnyau\\Desktop\\stuff\\MIUN\\quantitative_research\\video_compression\\compressed_videos\\UVG\\vp9\\1\\Jockey_1920x1080_120fps_420_8bit_YUV_vp9.webm",
  "codec": "vp9",
  "ok": "[yuv4mpegpipe @ 00000171b8525700] Stream #0: not enough frames to estimate rate; consider increasing probesize\nInput #0, yuv4mpegpipe, from 'C:\\Users\\mbnyau\\Desktop\\stuff\\MIUN\\quantitative_research\\video_compression\\videos\\UVG\\Jockey_1920x1080_120fps_420_8bit_YUV.y4m':\n  Duration: 00:00:05.00, start: 0.000000, bitrate: 2985989 kb/s\n  Stream #0:0: Video: rawvideo (I420 / 0x30323449), yuv420p(progressive), 1920x1080, 120 fps, 120 tbr, 120 tbn\n[out#0/webm @ 00000171b8526d80] Codec AVOption b:a (set bitrate (in bits/s)) has not been used for any stream. The most likely reason is either wrong type (e.g. a video option with no video streams) or that it is a private option of some decoder which was not actually used for any stream.\nStream mapping:\n  Stream #0:0 -> #0:0 (rawvideo (native) -> vp9 (libvpx-vp9))\nPress [q] to stop, [?] for help\n[libvpx-vp9 @ 00000171b852cc40] v1.15.2-100-g40561f514\nOutput #0, webm, to 'C:\\Users\\mbnyau\\Desktop\\stuff\\MIUN\\quantitative_research\\video_compression\\compressed_videos\\UVG\\vp9\\1\\Jockey_1920x1080_120fps_420_8bit_YUV_vp9.webm':\n  Metadata:\n    encoder         : Lavf62.3.100\n  Stream #0:0: Video: vp9, yuv420p(tv, progressive), 1920x1080, q=2-31, 1000 kb/s, 120 fps, 1k tbn\n    Metadata:\n      encoder         : Lavc62.11.100 libvpx-vp9\n    Side data:\n      cpb: bitrate max/min/avg: 0/0/0 buffer size: 1000000 vbv_delay: N/A\nframe=   11 fps=0.0 q=61.0 size=       0KiB time=00:00:00.09 bitrate=  42.0kbits/s speed=0.181x elapsed=0:00:00.50    \nframe=   25 fps= 24 q=61.0 size=       0KiB time=00:00:00.20 bitrate=  18.5kbits/s speed=0.203x elapsed=0:00:01.02    \nframe=   38 fps= 25 q=61.0 size=       0KiB time=00:00:00.31 bitrate=  12.2kbits/s speed=0.205x elapsed=0:00:01.54    \nframe=   51 fps= 25 q=61.0 size=       0KiB time=00:00:00.42 bitrate=   9.1kbits/s speed=0.207x elapsed=0:00:02.05    \nframe=   64 fps= 25 q=61.0 size=       0KiB time=00:00:00.53 bitrate=   7.2kbits/s speed=0.207x elapsed=0:00:02.57    \nframe=   76 fps= 25 q=61.0 size=       0KiB time=00:00:00.63 bitrate=   6.1kbits/s speed=0.205x elapsed=0:00:03.09    \nframe=   88 fps= 24 q=52.0 size=       0KiB time=00:00:00.73 bitrate=   5.2kbits/s speed=0.203x elapsed=0:00:03.60    \nframe=  101 fps= 25 q=62.0 size=       0KiB time=00:00:00.84 bitrate=   4.6kbits/s speed=0.205x elapsed=0:00:04.11    \nframe=  114 fps= 25 q=63.0 size=       0KiB time=00:00:00.95 bitrate=   4.1kbits/s speed=0.205x elapsed=0:00:04.63    \nframe=  126 fps= 24 q=62.0 size=       0KiB time=00:00:01.05 bitrate=   3.7kbits/s speed=0.204x elapsed=0:00:05.15    \nframe=  139 fps= 25 q=62.0 size=     125KiB time=00:00:01.15 bitrate= 885.0kbits/s speed=0.204x elapsed=0:00:05.66    \nframe=  151 fps= 24 q=63.0 size=     125KiB time=00:00:01.25 bitrate= 814.6kbits/s speed=0.203x elapsed=0:00:06.18    \nframe=  163 fps= 24 q=63.0 size=     125KiB time=00:00:01.35 bitrate= 754.7kbits/s speed=0.203x elapsed=0:00:06.69    \nframe=  175 fps= 24 q=63.0 size=     125KiB time=00:00:01.45 bitrate= 702.9kbits/s speed=0.202x elapsed=0:00:07.20    \nframe=  187 fps= 24 q=63.0 size=     125KiB time=00:00:01.55 bitrate= 657.8kbits/s speed=0.202x elapsed=0:00:07.72    \nframe=  198 fps= 24 q=63.0 size=     125KiB time=00:00:01.65 bitrate= 621.3kbits/s speed= 0.2x elapsed=0:00:08.24    \nframe=  210 fps= 24 q=63.0 size=     125KiB time=00:00:01.75 bitrate= 585.8kbits/s speed= 0.2x elapsed=0:00:08.75    \nframe=  220 fps= 24 q=56.0 size=     125KiB time=00:00:01.83 bitrate= 559.1kbits/s speed=0.198x elapsed=0:00:09.27    \nframe=  231 fps= 24 q=63.0 size=     125KiB time=00:00:01.92 bitrate= 532.5kbits/s speed=0.197x elapsed=0:00:09.78    \nframe=  242 fps= 23 q=63.0 size=     125KiB time=00:00:02.01 bitrate= 508.3kbits/s speed=0.196x elapsed=0:00:10.30    \nframe=  253 fps= 23 q=63.0 size=     125KiB time=00:00:02.10 bitrate= 486.2kbits/s speed=0.195x elapsed=0:00:10.82    \nframe=  265 fps= 23 q=63.0 size=     256KiB time=00:00:02.20 bitrate= 949.7kbits/s speed=0.195x elapsed=0:00:11.33    \nframe=  276 fps= 23 q=63.0 size=     256KiB time=00:00:02.30 bitrate= 911.8kbits/s speed=0.194x elapsed=0:00:11.85    \nframe=  287 fps= 23 q=63.0 size=     256KiB time=00:00:02.39 bitrate= 876.9kbits/s speed=0.193x elapsed=0:00:12.36    \nframe=  297 fps= 23 q=63.0 size=     256KiB time=00:00:02.47 bitrate= 847.3kbits/s speed=0.192x elapsed=0:00:12.88    \nframe=  307 fps= 23 q=63.0 size=     256KiB time=00:00:02.55 bitrate= 819.7kbits/s speed=0.191x elapsed=0:00:13.40    \nframe=  317 fps= 23 q=63.0 size=     256KiB time=00:00:02.64 bitrate= 793.9kbits/s speed=0.19x elapsed=0:00:13.91    \nframe=  326 fps= 23 q=63.0 size=     256KiB time=00:00:02.71 bitrate= 772.0kbits/s speed=0.188x elapsed=0:00:14.43    \nframe=  338 fps= 23 q=63.0 size=     256KiB time=00:00:02.81 bitrate= 744.6kbits/s speed=0.189x elapsed=0:00:14.93    \nframe=  350 fps= 23 q=63.0 size=     256KiB time=00:00:02.91 bitrate= 719.0kbits/s speed=0.189x elapsed=0:00:15.45    \nframe=  361 fps= 23 q=63.0 size=     256KiB time=00:00:03.00 bitrate= 697.1kbits/s speed=0.188x elapsed=0:00:15.97    \nframe=  375 fps= 23 q=63.0 size=     256KiB time=00:00:03.12 bitrate= 671.1kbits/s speed=0.189x elapsed=0:00:16.49    \nframe=  388 fps= 23 q=63.0 size=     256KiB time=00:00:03.23 bitrate= 648.6kbits/s speed=0.19x elapsed=0:00:17.01    \nframe=  401 fps= 23 q=62.0 size=     256KiB time=00:00:03.34 bitrate= 627.6kbits/s speed=0.191x elapsed=0:00:17.53    \nframe=  415 fps= 23 q=60.0 size=     256KiB time=00:00:03.45 bitrate= 606.4kbits/s speed=0.192x elapsed=0:00:18.04    \nframe=  428 fps= 23 q=59.0 size=     256KiB time=00:00:03.56 bitrate= 588.0kbits/s speed=0.192x elapsed=0:00:18.54    \nframe=  440 fps= 23 q=61.0 size=     256KiB time=00:00:03.66 bitrate= 572.0kbits/s speed=0.192x elapsed=0:00:19.06    \nframe=  454 fps= 23 q=62.0 size=     256KiB time=00:00:03.78 bitrate= 554.3kbits/s speed=0.193x elapsed=0:00:19.58    \nframe=  468 fps= 23 q=59.0 size=     256KiB time=00:00:03.90 bitrate= 537.7kbits/s speed=0.194x elapsed=0:00:20.09    \nframe=  482 fps= 23 q=57.0 size=     256KiB time=00:00:04.01 bitrate= 522.1kbits/s speed=0.195x elapsed=0:00:20.61    \nframe=  495 fps= 23 q=59.0 size=     256KiB time=00:00:04.12 bitrate= 508.4kbits/s speed=0.195x elapsed=0:00:21.14    \nframe=  507 fps= 23 q=59.0 size=     256KiB time=00:00:04.22 bitrate= 496.4kbits/s speed=0.195x elapsed=0:00:21.65    \nframe=  520 fps= 23 q=48.0 size=     512KiB time=00:00:04.33 bitrate= 967.9kbits/s speed=0.195x elapsed=0:00:22.16    \nframe=  533 fps= 23 q=60.0 size=     512KiB time=00:00:04.44 bitrate= 944.3kbits/s speed=0.196x elapsed=0:00:22.68    \nframe=  546 fps= 24 q=61.0 size=     512KiB time=00:00:04.55 bitrate= 921.8kbits/s speed=0.196x elapsed=0:00:23.20    \nframe=  556 fps= 23 q=61.0 size=     512KiB time=00:00:04.63 bitrate= 905.2kbits/s speed=0.195x elapsed=0:00:23.70    \nframe=  568 fps= 23 q=61.0 size=     512KiB time=00:00:04.73 bitrate= 886.1kbits/s speed=0.195x elapsed=0:00:24.22    \nframe=  576 fps= 23 q=49.0 size=     512KiB time=00:00:04.80 bitrate= 873.8kbits/s speed=0.194x elapsed=0:00:24.73    \nframe=  576 fps= 23 q=49.0 size=     512KiB time=00:00:04.80 bitrate= 873.8kbits/s speed=0.19x elapsed=0:00:25.25    \n[out#0/webm @ 00000171b8526d80] video:651KiB audio:0KiB subtitle:0KiB other streams:0KiB global headers:0KiB muxing overhead: 0.724929%\nframe=  600 fps= 23 q=63.0 Lsize=     656KiB time=00:00:05.00 bitrate=1074.4kbits/s speed=0.195x elapsed=0:00:25.64    \n",
  "seconds": 25.71149969100952,
  "probe_out": {}
}